<svg height='300px' width='300px'  fill="#000000" xmlns="http://www.w3.org/2000/svg" data-name="Layer 1" viewBox="0 0 64 64" x="0px" y="0px"><title>file document 3d</title><path d="M31,28.019v7.2l8.234,4.755,8.235-4.755V25.709l-8.235-4.754L33,24.554v-7.2L24.766,12.6l-8.235,4.754v9.509l8.235,4.755Zm2,0,5.232,3.02v6.048L33,34.063Zm7.232,9.071v-6.04l5.237-3.029v6.045Zm4.237-10.8-5.227,3.023L34,26.285l5.232-3.021ZM31,25.709h0l-5.237,3.023V22.692L31,19.664v6.045Zm-1-7.777-5.227,3.022-5.24-3.024,5.233-3.02ZM18.531,19.661l5.232,3.02v6.048l-5.232-3.02Z"></path><path d="M54,43.67V17.376l-.293-.293L39.417,2.793,39.124,2.5H14a4,4,0,0,0-4,4V40.242a1.991,1.991,0,0,0-1,1.722V56.5a5.006,5.006,0,0,0,5,5H50a5.006,5.006,0,0,0,5-5V45.393A1.991,1.991,0,0,0,54,43.67ZM27.914,50.157H24.038v1.824H26.93l.012,1.632-2.9.012v3.828H22.13V48.525h5.784Zm6.613,6.684a4.173,4.173,0,0,1-2.479.612H28.8V48.525h3.33a6.078,6.078,0,0,1,1.144.108,2.872,2.872,0,0,1,.988.378,2.01,2.01,0,0,1,.689.726,2.292,2.292,0,0,1,.257,1.14,2.154,2.154,0,0,1-.287,1.1,1.96,1.96,0,0,1-.839.769,2.073,2.073,0,0,1,1.031.839,2.787,2.787,0,0,1,.287,1.32A2.193,2.193,0,0,1,34.527,56.841Zm6.167.612-1.356-2.772-1.356,2.772h-2.1l2.412-4.572-2.268-4.356h2.1l1.212,2.508,1.212-2.508h2.1l-2.268,4.356,2.412,4.572ZM52,43.393H30.086l-2.4-2.746a2,2,0,0,0-1.505-.683H12V6.5a2,2,0,0,1,2-2H37.71V14.79a4,4,0,0,0,4,4H52Z"></path><path d="M32.63,51.905a1.022,1.022,0,0,0,.336-.158.833.833,0,0,0,.234-.263.755.755,0,0,0,.09-.38.867.867,0,0,0-.276-.7,1.212,1.212,0,0,0-.828-.246H30.71v1.8h1.524A1.5,1.5,0,0,0,32.63,51.905Z"></path><path d="M32.229,53.589H30.71v2.232h1.542a1.445,1.445,0,0,0,.929-.255,1.083,1.083,0,0,0,.313-.884,1.043,1.043,0,0,0-.3-.831A1.512,1.512,0,0,0,32.229,53.589Z"></path></svg>
