<svg height='300px' width='300px'  fill="#000000" xmlns="http://www.w3.org/2000/svg" data-name="Layer 1" viewBox="0 0 100 100" x="0px" y="0px"><title>icons_g</title><path d="M73.59,35.86l-.17-.09a9.56,9.56,0,0,1-2.72-2,3.56,3.56,0,0,1-.94-2.47v-.22a12.33,12.33,0,0,0-3.93-8.75c-3.79-3.8-9.88-6.17-15.89-6.17h-.1A44.7,44.7,0,0,0,33.91,19l-.94.35,2,5.29.81-.12a36.05,36.05,0,0,1,12.13,0,3,3,0,0,1,2.32,2.07,3,3,0,0,1-.76,3.09L44.14,35l1.77,1.77L31.27,51.41l-1.77-1.77L3.58,75.58a4.21,4.21,0,0,0,0,5.94L7.06,85a4.18,4.18,0,0,0,3,1.23h0A4.16,4.16,0,0,0,13,85L38.93,59.07l-1.77-1.77L51.8,42.67l1.77,1.77,4.17-4.17a4.3,4.3,0,0,1,3-1.25,4.23,4.23,0,0,1,3,1.25,12.76,12.76,0,0,1,2.3,3.13L63.49,46,71,53.52,83.58,41,76,33.43ZM36.1,59.07,11.59,83.59a2.17,2.17,0,0,1-1.55.64h0a2.19,2.19,0,0,1-1.56-.64L5,80.1A2.2,2.2,0,0,1,5,77L29.51,52.47l.35.35h0l5.89,5.89Zm-.35-3.18-3.06-3.06L47.32,38.19l1.53,1.53,1.53,1.53Zm29.42-17a6.25,6.25,0,0,0-8.85,0l-2.76,2.76-.35-.35h0l-2.95-2.95L47,35l3.88-3.88A5.07,5.07,0,0,0,52.1,26a4.94,4.94,0,0,0-3.86-3.45,37.7,37.7,0,0,0-12-.16l-.7-1.88a42.6,42.6,0,0,1,14.29-2.38h.09c5.5,0,11,2.14,14.48,5.58a10.39,10.39,0,0,1,3.34,7.34v.23a5.49,5.49,0,0,0,1.5,3.86,11.49,11.49,0,0,0,2.86,2.16l-4.59,4.59A14.75,14.75,0,0,0,65.17,38.85ZM71,50.69,66.32,46l1.08-1.08h0l8.45-8.45h0l.18-.18L80.75,41Z"></path><rect x="12.34" y="68.44" width="19.09" height="2" transform="translate(-42.69 35.82) rotate(-45)"></rect><rect x="9.69" y="65.79" width="19.09" height="2" transform="translate(-41.59 33.17) rotate(-45)"></rect><rect x="78.95" y="28.48" width="15.45" height="2" transform="translate(45.22 111.12) rotate(-81.86)"></rect><rect x="51.79" y="55.88" width="15.29" height="2" transform="translate(-3.08 3.4) rotate(-3.19)"></rect><rect x="57.13" y="64.42" width="7.98" height="2" transform="translate(-28.2 59.42) rotate(-43.1)"></rect><rect x="91.16" y="32.84" width="7.98" height="2" transform="translate(2.55 74.14) rotate(-43.1)"></rect></svg>
