<svg height='300px' width='300px'  fill="#000000" xmlns="http://www.w3.org/2000/svg" data-name="Layer 1" viewBox="0 0 64 64" x="0px" y="0px"><title>file document 3d</title><path d="M31,28.019v7.2l8.234,4.755,8.235-4.755V25.709l-8.235-4.754L33,24.554v-7.2L24.766,12.6l-8.235,4.754v9.509l8.235,4.755Zm2,0,5.232,3.02v6.048L33,34.063Zm7.232,9.071v-6.04l5.237-3.029v6.045Zm4.237-10.8-5.227,3.023L34,26.285l5.232-3.021ZM31,25.709h0l-5.237,3.023V22.692L31,19.664v6.045Zm-1-7.777-5.227,3.022-5.24-3.024,5.233-3.02ZM18.531,19.661l5.232,3.02v6.048l-5.232-3.02Z"></path><path d="M33.566,53.589H32.048v2.232h1.543a1.444,1.444,0,0,0,.928-.255,1.083,1.083,0,0,0,.313-.884,1.046,1.046,0,0,0-.3-.831A1.515,1.515,0,0,0,33.566,53.589Z"></path><path d="M33.968,51.905a1.022,1.022,0,0,0,.336-.158.821.821,0,0,0,.234-.263.745.745,0,0,0,.09-.38.869.869,0,0,0-.275-.7,1.216,1.216,0,0,0-.829-.246H32.048v1.8h1.524A1.5,1.5,0,0,0,33.968,51.905Z"></path><path d="M54,43.67V17.376l-.293-.293L39.417,2.793,39.124,2.5H14a4,4,0,0,0-4,4V40.242a1.991,1.991,0,0,0-1,1.722V56.5a5.006,5.006,0,0,0,5,5H50a5.006,5.006,0,0,0,5-5V45.393A1.991,1.991,0,0,0,54,43.67ZM28.138,56.349a3.364,3.364,0,0,1-2.8,1.224,3.868,3.868,0,0,1-1.761-.365,3.191,3.191,0,0,1-1.168-1,4.121,4.121,0,0,1-.647-1.464,7.943,7.943,0,0,1,0-3.516,4.137,4.137,0,0,1,.647-1.464,3.189,3.189,0,0,1,1.168-1,4.407,4.407,0,0,1,3.517,0,3.218,3.218,0,0,1,1.162,1,4.136,4.136,0,0,1,.646,1.464,7.6,7.6,0,0,1,.2,1.758A5.229,5.229,0,0,1,28.138,56.349Zm7.727.492a4.172,4.172,0,0,1-2.478.612H30.141V48.525H33.47a6.078,6.078,0,0,1,1.144.108,2.893,2.893,0,0,1,.989.378,2.015,2.015,0,0,1,.688.726,2.292,2.292,0,0,1,.258,1.14,2.154,2.154,0,0,1-.288,1.1,1.963,1.963,0,0,1-.838.769,2.07,2.07,0,0,1,1.03.839,2.775,2.775,0,0,1,.287,1.32A2.193,2.193,0,0,1,35.865,56.841Zm5.927-1.86a2.611,2.611,0,0,1-.66,1.944,2.443,2.443,0,0,1-1.788.637,2.369,2.369,0,0,1-1.308-.334,3.258,3.258,0,0,1-.936-.977l1.356-1.006a2.628,2.628,0,0,0,.342.48.686.686,0,0,0,.534.2.436.436,0,0,0,.276-.084.575.575,0,0,0,.168-.21,1.016,1.016,0,0,0,.084-.277,1.79,1.79,0,0,0,.024-.282V48.525h1.908ZM52,43.393H30.086l-2.4-2.746a2,2,0,0,0-1.505-.683H12V6.5a2,2,0,0,1,2-2H37.71V14.79a4,4,0,0,0,4,4H52Z"></path><path d="M25.334,50.037a1.513,1.513,0,0,0-1.408.726,4.342,4.342,0,0,0-.457,2.226,4.342,4.342,0,0,0,.457,2.226,1.717,1.717,0,0,0,2.8,0,4.331,4.331,0,0,0,.458-2.226,4.331,4.331,0,0,0-.458-2.226A1.5,1.5,0,0,0,25.334,50.037Z"></path></svg>
